<svg width="450" height="450" viewBox="0 0 450 450" fill="none" xmlns="http://www.w3.org/2000/svg">
<path d="M225 0.000366211C236.14 0.000366211 247.091 0.808919 257.797 2.37244C223.763 69.8342 225.777 151.012 270.271 214.556L271.046 215.655C309.986 270.482 372.23 299.745 437.059 300.386C406.062 387.574 322.822 450 225 450C222.014 450 219.042 449.941 216.085 449.826C218.524 406.252 207.36 362.273 181.245 324.441L180.478 323.336C138.949 264.027 70.3281 234.24 0.356445 237.776C0.119761 233.547 6.83063e-06 229.288 0 225C0 100.736 100.736 0.000366211 225 0.000366211ZM6.16406 277.523C62.0324 275.929 115.627 300.457 147.712 346.279C168.192 375.527 177.518 410.044 176.229 444.698C92.3711 426.165 26.0898 360.848 6.16406 277.523ZM297.904 12.0746C386.387 42.3629 450 126.253 450 225C450 237 449.059 248.779 447.25 260.27C390.425 262.734 335.632 238.163 303.037 191.613C266.106 138.869 265.433 68.9948 297.904 12.0746Z" fill="#4AC0E4"/>
</svg>
